<svg xmlns="http://www.w3.org/2000/svg" width="40" height="41" viewBox="0 0 40 41" fill="none">
    <path d="M0.949219 15.9546H4.26139V6.25778L11.6484 15.9546H14.503V0.701172H11.1908V10.0929L4.04348 0.701172H0.949219V15.9546Z"
          fill="black"></path>
    <path d="M25.332 15.9546H32.5883C36.0312 15.9546 38.2974 14.56 38.2974 11.7708C38.2974 9.6789 37.2079 8.65474 35.4429 7.97923C36.5324 7.3691 37.4476 6.41031 37.4476 4.68885C37.4476 3.59932 37.099 2.74949 36.4017 2.05219C35.53 1.18057 34.1572 0.701172 32.414 0.701172H25.332V15.9546ZM28.6006 6.86791V3.6429H31.9128C33.3292 3.6429 34.1136 4.20946 34.1136 5.21183C34.1136 6.38852 33.1766 6.86791 31.6949 6.86791H28.6006ZM28.6006 13.0129V9.65711H32.4794C34.2008 9.65711 34.9635 10.289 34.9635 11.3132C34.9635 12.4899 34.0701 13.0129 32.5883 13.0129H28.6006Z"
          fill="black"></path>
    <path d="M6.04374 40.5H9.3995V28.3408H14.0409V25.2466H1.40234V28.3408H6.04374V40.5Z"
          fill="black"></path>
    <path fill-rule="evenodd" clip-rule="evenodd"
          d="M19.546 40.0455L19.546 0.5L20.4551 0.5L20.4551 40.0455L19.546 40.0455Z"
          fill="black"></path>
    <path fill-rule="evenodd" clip-rule="evenodd"
          d="M0 20.0455L40 20.0455V20.9546L0 20.9546V20.0455Z" fill="black"></path>
</svg>